<svg xmlns="http://www.w3.org/2000/svg" width="151" height="150" viewBox="0 0 151 150" version="1.1"><path d="M 4.923 4.923 L 2 7.846 2 76 L 2 144.154 4.923 147.077 L 7.846 150 76 150 L 144.154 150 147.077 147.077 L 150 144.154 150 76 L 150 7.846 147.077 4.923 L 144.154 2 76 2 L 7.846 2 4.923 4.923 M 83 29.500 C 83 33.833, 82.889 34, 80 34 C 77.238 34, 77 34.278, 77 37.500 C 77 40.567, 77.310 41, 79.500 41 C 82.790 41, 82.712 43.039, 79.156 49.921 C 76.656 54.761, 76.462 55.807, 77.346 59.671 C 77.891 62.052, 78.607 64, 78.937 64 C 79.267 64, 80.304 62.763, 81.242 61.250 C 82.934 58.521, 82.947 58.563, 82.973 66.750 L 83 75 86.500 75 L 90 75 90 64.378 C 90 55.269, 90.204 53.925, 91.433 54.944 C 92.588 55.903, 93.192 55.637, 94.542 53.576 C 95.464 52.168, 96.585 51.244, 97.033 51.520 C 98.784 52.603, 107.223 37.151, 108.573 30.392 C 109.106 27.721, 108.863 27.195, 106.847 26.656 C 102.645 25.531, 102.190 25.918, 100.004 32.489 C 97.568 39.808, 96 41.598, 96 37.059 C 96 34.327, 95.680 34, 93 34 C 90.111 34, 90 33.833, 90 29.500 C 90 25.024, 89.981 25, 86.500 25 C 83.019 25, 83 25.024, 83 29.500 M 111.677 26.703 C 110.674 26.963, 110.046 27.698, 110.281 28.337 C 110.516 28.977, 111.476 31.834, 112.414 34.687 C 113.916 39.257, 121.251 52, 122.379 52 C 122.612 52, 123.752 50.390, 124.914 48.422 L 127.025 44.844 124.990 41.986 C 123.870 40.414, 121.572 36.174, 119.883 32.564 C 116.822 26.022, 116.155 25.546, 111.677 26.703 M 38 38.500 L 38 50 50.500 50 L 63 50 63 38.500 L 63 27 50.500 27 L 38 27 38 38.500 M 29 44 L 29 57 35 57 C 39.667 57, 41 57.333, 41 58.500 C 41 59.700, 39.500 60, 33.500 60 C 26.167 60, 26 60.056, 26 62.500 C 26 64.500, 26.500 65, 28.500 65 C 31.640 65, 31.638 65.724, 28.489 69.011 L 25.979 71.632 28.455 73.958 L 30.932 76.285 33.976 73.026 C 35.651 71.233, 37.290 68.694, 37.619 67.383 C 37.948 66.072, 38.843 65, 39.608 65 C 40.614 65, 41 66.404, 41 70.060 L 41 75.121 44.750 74.810 L 48.500 74.500 48.783 63.250 L 49.066 52 42.533 52 L 36 52 36 41.500 L 36 31 32.500 31 L 29 31 29 44 M 66 41.500 L 66 52 58.967 52 L 51.934 52 52.217 63.250 L 52.500 74.500 56.250 74.810 L 60 75.121 60 70.060 C 60 65.104, 60.062 65, 63 65 C 65.933 65, 66 65.111, 66 70 L 66 75 69.500 75 L 73 75 73 67.500 L 73 60 66.500 60 C 61.389 60, 60 59.679, 60 58.500 C 60 57.321, 61.389 57, 66.500 57 L 73 57 73 44 L 73 31 69.500 31 L 66 31 66 41.500 M 44 33 C 44 33.564, 46.833 34, 50.500 34 C 54.167 34, 57 33.564, 57 33 C 57 32.436, 54.167 32, 50.500 32 C 46.833 32, 44 32.436, 44 33 M 46.728 38.722 C 48.503 38.943, 51.653 38.946, 53.728 38.730 C 55.802 38.513, 54.350 38.333, 50.500 38.328 C 46.650 38.324, 44.952 38.501, 46.728 38.722 M 90 43.385 C 90 44.833, 90.994 46.421, 92.530 47.428 C 95.033 49.068, 95.053 49.058, 94.418 46.530 C 94.045 45.045, 94.294 43.351, 95.011 42.487 C 96.058 41.225, 95.772 41, 93.122 41 C 90.499 41, 90 41.381, 90 43.385 M 44 44 C 44 44.564, 46.833 45, 50.500 45 C 54.167 45, 57 44.564, 57 44 C 57 43.436, 54.167 43, 50.500 43 C 46.833 43, 44 43.436, 44 44 M 105.320 45.750 C 103.162 51.869, 99.513 59.778, 97.315 63.101 C 95.025 66.561, 94.881 67.298, 95.976 69.941 L 97.203 72.904 107.248 72.292 C 116.187 71.747, 117.438 71.878, 118.607 73.478 C 119.757 75.051, 120.301 75.118, 122.961 74.016 C 124.632 73.324, 126 72.609, 126 72.427 C 126 71.659, 118.712 55.430, 118.040 54.702 C 117.242 53.837, 112 55.864, 112 57.038 C 112 57.433, 112.657 59.327, 113.459 61.248 L 114.918 64.739 110.296 65.373 C 107.753 65.721, 105.508 65.842, 105.307 65.640 C 105.105 65.438, 106.753 61.523, 108.970 56.939 C 111.186 52.356, 113 48.064, 113 47.401 C 113 46.738, 111.583 45.702, 109.851 45.098 C 105.865 43.708, 106.049 43.682, 105.320 45.750 M 61 81 C 61 83.750, 60.663 85.982, 60.250 85.959 C 59.837 85.937, 57.948 84.592, 56.052 82.971 L 52.604 80.024 50.270 82.216 L 47.937 84.408 51.937 88.408 L 55.937 92.408 58.469 90.030 L 61 87.651 61 97.186 L 61 106.721 55.750 107.352 C 46.999 108.403, 45.543 108.255, 47.030 106.464 C 48.096 105.179, 47.851 104.454, 45.538 102.039 C 44.016 100.451, 42.147 99.390, 41.385 99.682 C 40.623 99.975, 40 99.716, 40 99.107 C 40 96.699, 46.883 97.958, 50.347 101 C 54.407 104.565, 55.101 104.651, 57.593 101.897 C 59.483 99.809, 59.468 99.770, 55.498 96.412 C 50.897 92.520, 50.207 92.358, 48.392 94.750 C 47.184 96.341, 47.061 96.250, 47.032 93.750 C 47.003 91.280, 46.644 91, 43.500 91 C 40.308 91, 40 90.746, 40 88.111 C 40 85.587, 40.454 85.137, 43.593 84.549 C 46.894 83.929, 47.131 83.657, 46.511 81.189 C 46.141 79.712, 45.671 78.338, 45.468 78.134 C 44.977 77.644, 26.868 79.798, 26.245 80.422 C 25.978 80.688, 26.047 82.053, 26.399 83.453 C 26.905 85.470, 27.659 86, 30.019 86 C 32.532 86, 33 86.392, 33 88.500 C 33 90.690, 32.567 91, 29.500 91 C 26.167 91, 26 91.167, 26 94.500 C 26 97.722, 26.238 98, 29 98 C 30.650 98, 32 98.247, 32 98.550 C 32 99.522, 28.771 105.431, 26.989 107.719 C 25.535 109.586, 25.432 110.577, 26.337 113.969 C 26.929 116.186, 27.682 118, 28.010 118 C 28.338 118, 29.585 116.313, 30.780 114.250 L 32.954 110.500 32.977 118.250 L 33 126 36.500 126 L 40 126 40 115.953 L 40 105.907 42.469 107.703 C 44.046 108.852, 44.948 110.501, 44.969 112.273 L 45 115.047 53 114.380 L 61 113.712 61 119.856 L 61 126 64.500 126 L 68 126 68 119.500 C 68 113.079, 68.034 113, 70.750 112.985 C 74.901 112.962, 76.376 111.635, 75.616 108.607 C 75.068 106.422, 74.398 106, 71.481 106 L 68 106 68 91 L 68 76 64.500 76 L 61 76 61 81 M 82.714 76.619 C 82.321 77.012, 82 79.058, 82 81.167 C 82 84.589, 81.732 85, 79.500 85 C 77.310 85, 77 85.433, 77 88.500 C 77 91.567, 77.310 92, 79.500 92 C 81.791 92, 82 92.371, 82 96.434 C 82 100.527, 81.789 100.891, 79.250 101.184 C 77.737 101.358, 76.612 101.838, 76.750 102.250 C 76.888 102.662, 77 104.399, 77 106.108 C 77 108.942, 77.226 109.160, 79.553 108.576 C 82.075 107.943, 82.103 108, 81.803 113.218 C 81.539 117.826, 81.213 118.541, 79.248 118.820 C 77.359 119.088, 77.098 119.570, 77.628 121.820 C 78.549 125.736, 79.452 126.325, 83.397 125.585 C 88.523 124.624, 90 121.885, 90 113.345 C 90 107.013, 90.244 106.057, 92 105.500 C 93.100 105.151, 94 104.073, 94 103.106 C 94 101.690, 94.634 101.439, 97.248 101.823 C 100.338 102.277, 100.386 102.348, 98.248 103.303 C 95.245 104.642, 95.382 105.310, 99.622 110.003 L 103.244 114.013 97.171 116.769 L 91.098 119.526 93.147 122.763 C 94.274 124.543, 95.490 125.997, 95.848 125.992 C 96.207 125.988, 99.422 124.523, 102.994 122.737 L 109.488 119.490 115.656 122.765 L 121.823 126.040 123.912 123.385 C 126.953 119.518, 126.558 118.596, 121 116.597 C 116.020 114.806, 115.010 113.730, 117.098 112.440 C 119.781 110.781, 124 102.447, 124 98.804 L 124 95 118.500 95 C 113.329 95, 113 94.854, 113 92.548 C 113 90.238, 113.363 90.078, 119.250 89.798 C 125.210 89.514, 125.514 89.375, 125.812 86.799 C 126.118 84.144, 126.018 84.094, 119.812 83.799 L 113.500 83.500 113.186 79.693 C 112.879 75.965, 112.797 75.893, 109.186 76.193 C 105.713 76.482, 105.482 76.717, 105.190 80.250 C 104.883 83.956, 104.829 84, 100.565 84 C 98.192 84, 94.872 84.276, 93.188 84.612 C 90.179 85.214, 90.121 85.150, 89.813 80.862 C 89.523 76.817, 89.279 76.478, 86.464 76.203 C 84.794 76.039, 83.107 76.227, 82.714 76.619 M 93.999 90.750 C 93.999 91.438, 93.100 92, 92 92 C 90.370 92, 90 92.667, 90 95.607 C 90 98.485, 90.320 99.091, 91.582 98.607 C 92.452 98.273, 93.352 98, 93.582 98 C 93.812 98, 94 97.325, 94 96.500 C 94 95.348, 95.278 95, 99.500 95 C 104.644 95, 105 94.844, 105 92.593 C 105 90.383, 104.549 90.157, 99.499 89.843 C 95.581 89.599, 93.998 89.860, 93.999 90.750 M 103 102.695 C 103 103.715, 108.227 109, 109.235 109 C 110.223 109, 114.921 103.878, 114.968 102.750 C 114.986 102.338, 112.300 102, 109 102 C 105.700 102, 103 102.313, 103 102.695" stroke="none" fill="#db957d" fill-rule="evenodd"/><path d="M 0 75 L 0 150 3.923 150 L 7.846 150 4.923 147.077 L 2 144.154 2 76 L 2 7.846 4.923 4.923 L 7.846 2 76 2 L 144.154 2 147.077 4.923 L 150 7.846 150 76 L 150 144.154 147.018 147.136 L 144.035 150.119 147.768 149.809 L 151.500 149.500 151.756 74.750 L 152.013 -0 76.006 -0 L 0 0 0 75 M 0.475 75.500 C 0.475 116.750, 0.598 133.771, 0.750 113.324 C 0.901 92.877, 0.901 59.127, 0.750 38.324 C 0.599 17.521, 0.475 34.250, 0.475 75.500 M 83 29.500 C 83 33.833, 82.889 34, 80 34 C 77.238 34, 77 34.278, 77 37.500 C 77 40.567, 77.310 41, 79.500 41 C 82.790 41, 82.712 43.039, 79.156 49.921 C 76.656 54.761, 76.462 55.807, 77.346 59.671 C 77.891 62.052, 78.607 64, 78.937 64 C 79.267 64, 80.304 62.763, 81.242 61.250 C 82.934 58.521, 82.947 58.563, 82.973 66.750 L 83 75 86.500 75 L 90 75 90 64.378 C 90 55.269, 90.204 53.925, 91.433 54.944 C 92.588 55.903, 93.192 55.637, 94.542 53.576 C 95.464 52.168, 96.585 51.244, 97.033 51.520 C 98.784 52.603, 107.223 37.151, 108.573 30.392 C 109.106 27.721, 108.863 27.195, 106.847 26.656 C 102.645 25.531, 102.190 25.918, 100.004 32.489 C 97.568 39.808, 96 41.598, 96 37.059 C 96 34.327, 95.680 34, 93 34 C 90.111 34, 90 33.833, 90 29.500 C 90 25.024, 89.981 25, 86.500 25 C 83.019 25, 83 25.024, 83 29.500 M 111.677 26.703 C 110.674 26.963, 110.046 27.698, 110.281 28.337 C 110.516 28.977, 111.476 31.834, 112.414 34.687 C 113.916 39.257, 121.251 52, 122.379 52 C 122.612 52, 123.752 50.390, 124.914 48.422 L 127.025 44.844 124.990 41.986 C 123.870 40.414, 121.572 36.174, 119.883 32.564 C 116.822 26.022, 116.155 25.546, 111.677 26.703 M 38 38.500 L 38 50 50.500 50 L 63 50 63 38.500 L 63 27 50.500 27 L 38 27 38 38.500 M 29 44 L 29 57 35 57 C 39.667 57, 41 57.333, 41 58.500 C 41 59.700, 39.500 60, 33.500 60 C 26.167 60, 26 60.056, 26 62.500 C 26 64.500, 26.500 65, 28.500 65 C 31.640 65, 31.638 65.724, 28.489 69.011 L 25.979 71.632 28.455 73.958 L 30.932 76.285 33.976 73.026 C 35.651 71.233, 37.290 68.694, 37.619 67.383 C 37.948 66.072, 38.843 65, 39.608 65 C 40.614 65, 41 66.404, 41 70.060 L 41 75.121 44.750 74.810 L 48.500 74.500 48.783 63.250 L 49.066 52 42.533 52 L 36 52 36 41.500 L 36 31 32.500 31 L 29 31 29 44 M 66 41.500 L 66 52 58.967 52 L 51.934 52 52.217 63.250 L 52.500 74.500 56.250 74.810 L 60 75.121 60 70.060 C 60 65.104, 60.062 65, 63 65 C 65.933 65, 66 65.111, 66 70 L 66 75 69.500 75 L 73 75 73 67.500 L 73 60 66.500 60 C 61.389 60, 60 59.679, 60 58.500 C 60 57.321, 61.389 57, 66.500 57 L 73 57 73 44 L 73 31 69.500 31 L 66 31 66 41.500 M 44 33 C 44 33.564, 46.833 34, 50.500 34 C 54.167 34, 57 33.564, 57 33 C 57 32.436, 54.167 32, 50.500 32 C 46.833 32, 44 32.436, 44 33 M 46.728 38.722 C 48.503 38.943, 51.653 38.946, 53.728 38.730 C 55.802 38.513, 54.350 38.333, 50.500 38.328 C 46.650 38.324, 44.952 38.501, 46.728 38.722 M 90 43.385 C 90 44.833, 90.994 46.421, 92.530 47.428 C 95.033 49.068, 95.053 49.058, 94.418 46.530 C 94.045 45.045, 94.294 43.351, 95.011 42.487 C 96.058 41.225, 95.772 41, 93.122 41 C 90.499 41, 90 41.381, 90 43.385 M 44 44 C 44 44.564, 46.833 45, 50.500 45 C 54.167 45, 57 44.564, 57 44 C 57 43.436, 54.167 43, 50.500 43 C 46.833 43, 44 43.436, 44 44 M 105.320 45.750 C 103.162 51.869, 99.513 59.778, 97.315 63.101 C 95.025 66.561, 94.881 67.298, 95.976 69.941 L 97.203 72.904 107.248 72.292 C 116.187 71.747, 117.438 71.878, 118.607 73.478 C 119.757 75.051, 120.301 75.118, 122.961 74.016 C 124.632 73.324, 126 72.609, 126 72.427 C 126 71.659, 118.712 55.430, 118.040 54.702 C 117.242 53.837, 112 55.864, 112 57.038 C 112 57.433, 112.657 59.327, 113.459 61.248 L 114.918 64.739 110.296 65.373 C 107.753 65.721, 105.508 65.842, 105.307 65.640 C 105.105 65.438, 106.753 61.523, 108.970 56.939 C 111.186 52.356, 113 48.064, 113 47.401 C 113 46.738, 111.583 45.702, 109.851 45.098 C 105.865 43.708, 106.049 43.682, 105.320 45.750 M 61 81 C 61 83.750, 60.663 85.982, 60.250 85.959 C 59.837 85.937, 57.948 84.592, 56.052 82.971 L 52.604 80.024 50.270 82.216 L 47.937 84.408 51.937 88.408 L 55.937 92.408 58.469 90.030 L 61 87.651 61 97.186 L 61 106.721 55.750 107.352 C 46.999 108.403, 45.543 108.255, 47.030 106.464 C 48.096 105.179, 47.851 104.454, 45.538 102.039 C 44.016 100.451, 42.147 99.390, 41.385 99.682 C 40.623 99.975, 40 99.716, 40 99.107 C 40 96.699, 46.883 97.958, 50.347 101 C 54.407 104.565, 55.101 104.651, 57.593 101.897 C 59.483 99.809, 59.468 99.770, 55.498 96.412 C 50.897 92.520, 50.207 92.358, 48.392 94.750 C 47.184 96.341, 47.061 96.250, 47.032 93.750 C 47.003 91.280, 46.644 91, 43.500 91 C 40.308 91, 40 90.746, 40 88.111 C 40 85.587, 40.454 85.137, 43.593 84.549 C 46.894 83.929, 47.131 83.657, 46.511 81.189 C 46.141 79.712, 45.671 78.338, 45.468 78.134 C 44.977 77.644, 26.868 79.798, 26.245 80.422 C 25.978 80.688, 26.047 82.053, 26.399 83.453 C 26.905 85.470, 27.659 86, 30.019 86 C 32.532 86, 33 86.392, 33 88.500 C 33 90.690, 32.567 91, 29.500 91 C 26.167 91, 26 91.167, 26 94.500 C 26 97.722, 26.238 98, 29 98 C 30.650 98, 32 98.247, 32 98.550 C 32 99.522, 28.771 105.431, 26.989 107.719 C 25.535 109.586, 25.432 110.577, 26.337 113.969 C 26.929 116.186, 27.682 118, 28.010 118 C 28.338 118, 29.585 116.313, 30.780 114.250 L 32.954 110.500 32.977 118.250 L 33 126 36.500 126 L 40 126 40 115.953 L 40 105.907 42.469 107.703 C 44.046 108.852, 44.948 110.501, 44.969 112.273 L 45 115.047 53 114.380 L 61 113.712 61 119.856 L 61 126 64.500 126 L 68 126 68 119.500 C 68 113.079, 68.034 113, 70.750 112.985 C 74.901 112.962, 76.376 111.635, 75.616 108.607 C 75.068 106.422, 74.398 106, 71.481 106 L 68 106 68 91 L 68 76 64.500 76 L 61 76 61 81 M 82.714 76.619 C 82.321 77.012, 82 79.058, 82 81.167 C 82 84.589, 81.732 85, 79.500 85 C 77.310 85, 77 85.433, 77 88.500 C 77 91.567, 77.310 92, 79.500 92 C 81.791 92, 82 92.371, 82 96.434 C 82 100.527, 81.789 100.891, 79.250 101.184 C 77.737 101.358, 76.612 101.838, 76.750 102.250 C 76.888 102.662, 77 104.399, 77 106.108 C 77 108.942, 77.226 109.160, 79.553 108.576 C 82.075 107.943, 82.103 108, 81.803 113.218 C 81.539 117.826, 81.213 118.541, 79.248 118.820 C 77.359 119.088, 77.098 119.570, 77.628 121.820 C 78.549 125.736, 79.452 126.325, 83.397 125.585 C 88.523 124.624, 90 121.885, 90 113.345 C 90 107.013, 90.244 106.057, 92 105.500 C 93.100 105.151, 94 104.073, 94 103.106 C 94 101.690, 94.634 101.439, 97.248 101.823 C 100.338 102.277, 100.386 102.348, 98.248 103.303 C 95.245 104.642, 95.382 105.310, 99.622 110.003 L 103.244 114.013 97.171 116.769 L 91.098 119.526 93.147 122.763 C 94.274 124.543, 95.490 125.997, 95.848 125.992 C 96.207 125.988, 99.422 124.523, 102.994 122.737 L 109.488 119.490 115.656 122.765 L 121.823 126.040 123.912 123.385 C 126.953 119.518, 126.558 118.596, 121 116.597 C 116.020 114.806, 115.010 113.730, 117.098 112.440 C 119.781 110.781, 124 102.447, 124 98.804 L 124 95 118.500 95 C 113.329 95, 113 94.854, 113 92.548 C 113 90.238, 113.363 90.078, 119.250 89.798 C 125.210 89.514, 125.514 89.375, 125.812 86.799 C 126.118 84.144, 126.018 84.094, 119.812 83.799 L 113.500 83.500 113.186 79.693 C 112.879 75.965, 112.797 75.893, 109.186 76.193 C 105.713 76.482, 105.482 76.717, 105.190 80.250 C 104.883 83.956, 104.829 84, 100.565 84 C 98.192 84, 94.872 84.276, 93.188 84.612 C 90.179 85.214, 90.121 85.150, 89.813 80.862 C 89.523 76.817, 89.279 76.478, 86.464 76.203 C 84.794 76.039, 83.107 76.227, 82.714 76.619 M 93.999 90.750 C 93.999 91.438, 93.100 92, 92 92 C 90.370 92, 90 92.667, 90 95.607 C 90 98.485, 90.320 99.091, 91.582 98.607 C 92.452 98.273, 93.352 98, 93.582 98 C 93.812 98, 94 97.325, 94 96.500 C 94 95.348, 95.278 95, 99.500 95 C 104.644 95, 105 94.844, 105 92.593 C 105 90.383, 104.549 90.157, 99.499 89.843 C 95.581 89.599, 93.998 89.860, 93.999 90.750 M 103 102.695 C 103 103.715, 108.227 109, 109.235 109 C 110.223 109, 114.921 103.878, 114.968 102.750 C 114.986 102.338, 112.300 102, 109 102 C 105.700 102, 103 102.313, 103 102.695" stroke="none" fill="#f9f7f6" fill-rule="evenodd"/></svg>