<svg xmlns="http://www.w3.org/2000/svg" width="987" height="888" viewBox="0 0 987 888" version="1.1"><path d="M 153.407 402.150 C 153.162 402.547, 154.095 404.004, 155.481 405.390 C 158.426 408.335, 158.357 407.438, 158.092 439.500 C 157.856 468.001, 157.579 470.267, 153.880 473.966 C 152.296 475.550, 151 477.331, 151 477.923 C 151 478.651, 156.667 479, 168.500 479 C 182.733 479, 186 478.742, 186 477.617 C 186 476.856, 185.094 475.996, 183.987 475.707 C 182.879 475.417, 181.343 473.673, 180.574 471.831 C 178.998 468.058, 177.391 446.562, 178.389 442.588 L 179.038 440 194.019 440 L 209 440 208.994 453.250 C 208.988 469.201, 208.028 473.417, 203.921 475.541 C 202.278 476.390, 201.201 477.516, 201.526 478.043 C 202.281 479.264, 744.656 479.265, 754.500 478.044 C 769.782 476.148, 775.886 474.942, 784.917 472.033 C 813.140 462.943, 831.344 444.074, 827.158 428.250 C 824.706 418.977, 817.445 413, 808.634 413 C 804.199 413, 803.340 413.401, 799.533 417.250 C 796.313 420.505, 794.712 423.373, 792.693 429.500 C 789.703 438.574, 787.790 442.567, 783.351 449 C 777.030 458.159, 762.334 469.532, 751.097 473.962 C 745.941 475.994, 745.167 476, 490.118 476 L 234.310 476 232.405 473.895 C 230.614 471.916, 230.500 469.847, 230.500 439.307 L 230.500 406.823 232.892 404.887 C 234.207 403.821, 235.009 402.676, 234.674 402.340 C 233.639 401.306, 206.591 400.925, 205.053 401.922 C 203.857 402.699, 204.030 403.203, 206.053 404.840 C 208.443 406.773, 208.500 407.153, 208.500 421.160 L 208.500 435.500 194.622 435.669 C 186.989 435.763, 180.068 435.580, 179.243 435.263 C 177.983 434.779, 177.824 432.746, 178.251 422.594 C 178.810 409.316, 179.808 405.513, 182.998 404.501 C 184.160 404.132, 184.937 403.311, 184.725 402.676 C 184.296 401.387, 154.192 400.881, 153.407 402.150 M 282.056 403.632 C 281.446 404.659, 275.165 417.204, 268.097 431.509 C 257.209 453.545, 254.539 458.170, 250.623 461.780 C 248.080 464.124, 246 466.257, 246 466.521 C 246 466.784, 250.950 467, 257 467 C 267.270 467, 270.783 466.018, 265.973 464.492 C 264.859 464.138, 263.244 462.776, 262.385 461.465 C 260.513 458.607, 261.133 454.894, 264.766 447.215 L 267.267 441.931 276.823 442.215 L 286.380 442.500 289.640 449 C 291.432 452.575, 293.212 457.043, 293.594 458.929 C 294.202 461.926, 293.925 462.649, 291.395 464.674 L 288.500 466.990 321.962 466.995 L 355.424 467 351.975 464.121 L 348.526 461.241 348.513 448.371 L 348.500 435.500 351.532 435.203 C 358.246 434.545, 362.672 439.977, 369.593 457.369 C 373.646 467.554, 371.691 467.168, 417.347 466.804 L 455.500 466.500 461.272 463.667 C 467.344 460.687, 471 455.799, 471 450.662 C 471 447.210, 468.566 441.867, 465.824 439.298 C 463.104 436.750, 456.983 434, 454.032 434 C 450.590 434, 451.767 432.495, 456.910 430.322 C 462.484 427.968, 465.205 423.950, 465.365 417.840 C 465.488 413.179, 462.687 409.192, 457.412 406.515 C 453.913 404.740, 451.046 404.494, 430.250 404.184 C 417.462 403.994, 407 404.142, 407 404.512 C 407 404.882, 407.900 406.329, 409 407.727 C 410.869 410.103, 410.995 411.719, 410.923 432.385 C 410.817 463.059, 409.835 465.475, 397.787 464.731 C 391.033 464.313, 389.023 462.812, 386.394 456.220 C 381.503 443.955, 378.613 439.589, 373.581 436.861 L 368.713 434.222 372.106 433.489 C 377.701 432.281, 382.958 429.117, 385.035 425.710 C 389.026 419.165, 386.427 410.919, 378.997 406.554 C 375.766 404.656, 373.596 404.476, 350.500 404.185 L 325.501 403.869 328.250 406.739 L 331 409.609 331 433.854 C 331 463.385, 330.513 465, 321.605 465 C 319.373 465, 317.576 464.150, 315.792 462.250 C 314.371 460.738, 306.835 446.900, 299.044 431.500 C 291.253 416.100, 284.493 403.109, 284.022 402.632 C 283.540 402.144, 282.679 402.582, 282.056 403.632 M 505.920 402.963 C 496.558 404.645, 487.467 411.427, 482.805 420.209 C 480.831 423.926, 480.526 425.972, 480.528 435.500 C 480.530 445.466, 480.779 446.970, 483.176 451.500 C 489.539 463.526, 501.496 469.540, 518.208 469.122 C 523.717 468.983, 532.249 466.005, 536.841 462.617 C 556.558 448.070, 553.259 415.608, 531 405.139 C 524.987 402.311, 514.577 401.408, 505.920 402.963 M 160.706 408.272 C 162.827 414.430, 162.143 463.736, 159.853 469.750 C 157.986 474.650, 158.768 475.356, 161.305 471.061 C 163.997 466.504, 165.007 454.442, 164.659 431 C 164.342 409.659, 163.772 405.894, 160.675 404.706 C 159.509 404.258, 159.514 404.812, 160.706 408.272 M 500.500 405.875 C 494.411 409.182, 491.112 412.125, 487.657 417.329 C 479.282 429.948, 481.121 449.186, 491.661 459.197 C 494.672 462.057, 503.304 467, 505.288 467 C 505.938 467, 504.677 466.056, 502.485 464.903 C 491.486 459.116, 484.904 448.559, 484.779 436.506 C 484.668 425.794, 487.073 419.719, 494.184 412.750 C 497.411 409.587, 500.602 406.986, 501.275 406.968 C 501.949 406.951, 503.374 406.276, 504.441 405.468 C 507.082 403.471, 504.420 403.745, 500.500 405.875 M 509.330 405.757 C 502.503 409.510, 499.130 417.233, 498.350 430.897 C 497.104 452.713, 503.280 466.200, 514.516 466.200 C 522.913 466.200, 529.066 457.961, 530.997 444.131 C 533.051 429.426, 528.735 411.542, 522 406.847 C 518.166 404.174, 513.015 403.731, 509.330 405.757 M 558 404.500 C 558 404.775, 558.900 405.900, 560 407 C 561.880 408.880, 562 410.333, 562 431.184 C 562 456.193, 562.702 459.289, 569.404 463.824 C 581.157 471.775, 603.949 470.517, 611.885 461.478 C 616.240 456.518, 617.083 452.522, 617.889 433 C 618.671 414.096, 619.539 410.772, 624.869 406.286 L 627.500 404.072 615.750 404.036 C 609.288 404.016, 604.003 404.337, 604.006 404.750 C 604.010 405.163, 605.340 406.255, 606.963 407.179 C 611.479 409.748, 613.142 414.884, 613.739 428.110 C 614.698 449.358, 612.863 456.480, 605.078 461.726 C 600.391 464.885, 589.527 464.989, 585.615 461.912 C 579.886 457.406, 579.500 455.493, 579.500 431.641 L 579.500 409.782 582.962 406.891 L 586.424 404 572.212 404 C 564.396 404, 558 404.225, 558 404.500 M 637.313 406.805 L 640 409.609 640 433.758 C 640 458.973, 639.612 461.688, 635.500 465.217 C 633.596 466.851, 634.238 466.935, 648.962 466.967 L 664.424 467 660.975 464.121 L 657.526 461.241 657.513 448.371 L 657.500 435.500 660.532 435.203 C 667.130 434.556, 670.846 439, 679.195 457.522 C 680.677 460.810, 682.927 464.147, 684.195 464.937 C 686.762 466.538, 704.004 467.788, 703.994 466.372 C 703.990 465.893, 702.720 464.779, 701.171 463.898 C 699.481 462.937, 697.385 460.177, 695.928 456.992 C 688.762 441.333, 687.606 439.585, 682.636 436.891 L 677.824 434.282 682.162 433.164 C 692.011 430.627, 696.618 425.172, 695.710 417.119 C 695.098 411.689, 690.461 406.777, 684.344 405.079 C 682.137 404.466, 670.735 404.009, 657.563 404.006 L 634.626 404 637.313 406.805 M 333.500 434.635 C 333.500 456.981, 333.726 461.609, 334.705 459.319 C 336.395 455.364, 336.404 412.353, 334.715 409.316 C 333.738 407.560, 333.500 412.528, 333.500 434.635 M 348.485 408.179 C 348.179 408.976, 348.057 414.550, 348.214 420.564 L 348.500 431.500 354.010 431.400 C 360.627 431.279, 365.426 429.012, 367.483 425.033 C 370.444 419.308, 368.454 412.320, 363.069 409.536 C 358.643 407.247, 349.180 406.367, 348.485 408.179 M 413.043 409.613 C 414.312 412.951, 414.229 451.293, 412.941 456.882 C 411.769 461.964, 412.270 463.173, 414.164 459.836 C 415.109 458.170, 415.589 451.649, 415.836 437.100 C 416.210 415.042, 415.689 408.478, 413.495 407.636 C 412.369 407.204, 412.278 407.602, 413.043 409.613 M 428 418.826 C 428 425.457, 428.407 431.133, 428.903 431.440 C 429.400 431.747, 432.631 431.612, 436.083 431.140 C 444.286 430.018, 448 426.365, 448 419.418 C 448 411.360, 445.041 408.882, 433.750 407.482 L 428 406.770 428 418.826 M 564.747 428.881 C 565.030 453.531, 565.280 455.815, 568.099 459.399 C 570.998 463.084, 572.537 462.645, 569.780 458.918 C 567.592 455.961, 567.487 454.927, 567.164 433.215 C 566.941 418.137, 566.441 410.038, 565.664 408.928 C 564.766 407.643, 564.557 412.204, 564.747 428.881 M 642.500 434.627 C 642.500 456.728, 642.732 461.575, 643.679 459.253 C 645.545 454.677, 645.752 413.258, 643.925 409.805 C 642.661 407.414, 642.500 410.213, 642.500 434.627 M 657.750 407.567 C 657.337 407.988, 657 413.447, 657 419.698 C 657 432.707, 656.934 432.613, 665.368 431.560 C 672.870 430.623, 677.016 427.033, 677.710 420.878 C 678.310 415.561, 676.393 411.772, 671.938 409.468 C 668.679 407.783, 658.830 406.463, 657.750 407.567 M 763.193 415.263 C 758.679 416.708, 752.681 423.815, 750.119 430.754 C 748.868 434.142, 747.629 440.862, 747.099 447.129 C 746.604 452.975, 745.653 458.825, 744.985 460.129 C 744.317 461.433, 741.460 464.915, 738.635 467.866 L 733.500 473.233 737.263 472.569 C 741.095 471.892, 750.242 468.166, 757.552 464.303 C 773.740 455.748, 783.926 434.664, 778.165 421.639 C 776.601 418.105, 775.208 416.567, 772.573 415.466 C 768.596 413.804, 767.802 413.787, 763.193 415.263 M 279.048 418.170 C 279.022 419.088, 281.531 425.163, 284.623 431.670 C 292.458 448.152, 297 458.874, 297 460.889 C 297 461.830, 296.460 463.140, 295.800 463.800 C 295.018 464.582, 294.976 465, 295.678 465 C 297.721 465, 299.254 462.018, 298.681 459.155 C 297.550 453.498, 279.138 415.061, 279.048 418.170 M 272.611 430.250 C 270.780 434.238, 269.471 437.837, 269.700 438.250 C 270.285 439.299, 282.763 439.193, 283.418 438.133 C 284.087 437.050, 277.921 423, 276.777 423 C 276.316 423, 274.441 426.262, 272.611 430.250 M 427.932 435.750 C 427.813 437.057, 427.786 451.343, 427.895 455.295 C 428.048 460.829, 431.542 464, 437.487 464 C 447.963 464, 453.373 458.597, 452.742 448.764 C 452.288 441.681, 449.748 438.597, 442.627 436.482 C 437.398 434.929, 428.049 434.463, 427.932 435.750 M 724.471 440.672 C 722.443 442.700, 722.986 447.454, 726.034 454.344 C 727.167 456.906, 728.359 461.239, 728.683 463.972 L 729.272 468.943 732.255 466.819 C 733.895 465.650, 736.568 462.626, 738.193 460.097 C 740.708 456.186, 741.082 454.763, 740.703 450.562 C 740.332 446.454, 739.650 445.068, 736.643 442.312 C 732.543 438.554, 727.296 437.847, 724.471 440.672" stroke="none" fill="#191919" fill-rule="evenodd"/><path d="M 0 444.001 L 0 888.002 493.750 887.751 L 987.500 887.500 987.751 443.750 L 988.002 -0 494.001 -0 L 0 0 0 444.001 M 0.496 444.500 C 0.496 688.700, 0.610 788.451, 0.750 666.168 C 0.890 543.886, 0.890 344.086, 0.750 222.168 C 0.610 100.251, 0.496 200.300, 0.496 444.500 M 153.407 402.150 C 153.162 402.547, 154.095 404.004, 155.481 405.390 C 158.426 408.335, 158.357 407.438, 158.092 439.500 C 157.856 468.001, 157.579 470.267, 153.880 473.966 C 152.296 475.550, 151 477.331, 151 477.923 C 151 478.651, 156.667 479, 168.500 479 C 182.733 479, 186 478.742, 186 477.617 C 186 476.856, 185.094 475.996, 183.987 475.707 C 182.879 475.417, 181.343 473.673, 180.574 471.831 C 178.998 468.058, 177.391 446.562, 178.389 442.588 L 179.038 440 194.019 440 L 209 440 208.994 453.250 C 208.988 469.201, 208.028 473.417, 203.921 475.541 C 202.278 476.390, 201.201 477.516, 201.526 478.043 C 202.281 479.264, 744.656 479.265, 754.500 478.044 C 769.782 476.148, 775.886 474.942, 784.917 472.033 C 813.140 462.943, 831.344 444.074, 827.158 428.250 C 824.706 418.977, 817.445 413, 808.634 413 C 804.199 413, 803.340 413.401, 799.533 417.250 C 796.313 420.505, 794.712 423.373, 792.693 429.500 C 789.703 438.574, 787.790 442.567, 783.351 449 C 777.030 458.159, 762.334 469.532, 751.097 473.962 C 745.941 475.994, 745.167 476, 490.118 476 L 234.310 476 232.405 473.895 C 230.614 471.916, 230.500 469.847, 230.500 439.307 L 230.500 406.823 232.892 404.887 C 234.207 403.821, 235.009 402.676, 234.674 402.340 C 233.639 401.306, 206.591 400.925, 205.053 401.922 C 203.857 402.699, 204.030 403.203, 206.053 404.840 C 208.443 406.773, 208.500 407.153, 208.500 421.160 L 208.500 435.500 194.622 435.669 C 186.989 435.763, 180.068 435.580, 179.243 435.263 C 177.983 434.779, 177.824 432.746, 178.251 422.594 C 178.810 409.316, 179.808 405.513, 182.998 404.501 C 184.160 404.132, 184.937 403.311, 184.725 402.676 C 184.296 401.387, 154.192 400.881, 153.407 402.150 M 282.056 403.632 C 281.446 404.659, 275.165 417.204, 268.097 431.509 C 257.209 453.545, 254.539 458.170, 250.623 461.780 C 248.080 464.124, 246 466.257, 246 466.521 C 246 466.784, 250.950 467, 257 467 C 267.270 467, 270.783 466.018, 265.973 464.492 C 264.859 464.138, 263.244 462.776, 262.385 461.465 C 260.513 458.607, 261.133 454.894, 264.766 447.215 L 267.267 441.931 276.823 442.215 L 286.380 442.500 289.640 449 C 291.432 452.575, 293.212 457.043, 293.594 458.929 C 294.202 461.926, 293.925 462.649, 291.395 464.674 L 288.500 466.990 321.962 466.995 L 355.424 467 351.975 464.121 L 348.526 461.241 348.513 448.371 L 348.500 435.500 351.532 435.203 C 358.246 434.545, 362.672 439.977, 369.593 457.369 C 373.646 467.554, 371.691 467.168, 417.347 466.804 L 455.500 466.500 461.272 463.667 C 467.344 460.687, 471 455.799, 471 450.662 C 471 447.210, 468.566 441.867, 465.824 439.298 C 463.104 436.750, 456.983 434, 454.032 434 C 450.590 434, 451.767 432.495, 456.910 430.322 C 462.484 427.968, 465.205 423.950, 465.365 417.840 C 465.488 413.179, 462.687 409.192, 457.412 406.515 C 453.913 404.740, 451.046 404.494, 430.250 404.184 C 417.462 403.994, 407 404.142, 407 404.512 C 407 404.882, 407.900 406.329, 409 407.727 C 410.869 410.103, 410.995 411.719, 410.923 432.385 C 410.817 463.059, 409.835 465.475, 397.787 464.731 C 391.033 464.313, 389.023 462.812, 386.394 456.220 C 381.503 443.955, 378.613 439.589, 373.581 436.861 L 368.713 434.222 372.106 433.489 C 377.701 432.281, 382.958 429.117, 385.035 425.710 C 389.026 419.165, 386.427 410.919, 378.997 406.554 C 375.766 404.656, 373.596 404.476, 350.500 404.185 L 325.501 403.869 328.250 406.739 L 331 409.609 331 433.854 C 331 463.385, 330.513 465, 321.605 465 C 319.373 465, 317.576 464.150, 315.792 462.250 C 314.371 460.738, 306.835 446.900, 299.044 431.500 C 291.253 416.100, 284.493 403.109, 284.022 402.632 C 283.540 402.144, 282.679 402.582, 282.056 403.632 M 505.920 402.963 C 496.558 404.645, 487.467 411.427, 482.805 420.209 C 480.831 423.926, 480.526 425.972, 480.528 435.500 C 480.530 445.466, 480.779 446.970, 483.176 451.500 C 489.539 463.526, 501.496 469.540, 518.208 469.122 C 523.717 468.983, 532.249 466.005, 536.841 462.617 C 556.558 448.070, 553.259 415.608, 531 405.139 C 524.987 402.311, 514.577 401.408, 505.920 402.963 M 160.706 408.272 C 162.827 414.430, 162.143 463.736, 159.853 469.750 C 157.986 474.650, 158.768 475.356, 161.305 471.061 C 163.997 466.504, 165.007 454.442, 164.659 431 C 164.342 409.659, 163.772 405.894, 160.675 404.706 C 159.509 404.258, 159.514 404.812, 160.706 408.272 M 500.500 405.875 C 494.411 409.182, 491.112 412.125, 487.657 417.329 C 479.282 429.948, 481.121 449.186, 491.661 459.197 C 494.672 462.057, 503.304 467, 505.288 467 C 505.938 467, 504.677 466.056, 502.485 464.903 C 491.486 459.116, 484.904 448.559, 484.779 436.506 C 484.668 425.794, 487.073 419.719, 494.184 412.750 C 497.411 409.587, 500.602 406.986, 501.275 406.968 C 501.949 406.951, 503.374 406.276, 504.441 405.468 C 507.082 403.471, 504.420 403.745, 500.500 405.875 M 509.330 405.757 C 502.503 409.510, 499.130 417.233, 498.350 430.897 C 497.104 452.713, 503.280 466.200, 514.516 466.200 C 522.913 466.200, 529.066 457.961, 530.997 444.131 C 533.051 429.426, 528.735 411.542, 522 406.847 C 518.166 404.174, 513.015 403.731, 509.330 405.757 M 558 404.500 C 558 404.775, 558.900 405.900, 560 407 C 561.880 408.880, 562 410.333, 562 431.184 C 562 456.193, 562.702 459.289, 569.404 463.824 C 581.157 471.775, 603.949 470.517, 611.885 461.478 C 616.240 456.518, 617.083 452.522, 617.889 433 C 618.671 414.096, 619.539 410.772, 624.869 406.286 L 627.500 404.072 615.750 404.036 C 609.288 404.016, 604.003 404.337, 604.006 404.750 C 604.010 405.163, 605.340 406.255, 606.963 407.179 C 611.479 409.748, 613.142 414.884, 613.739 428.110 C 614.698 449.358, 612.863 456.480, 605.078 461.726 C 600.391 464.885, 589.527 464.989, 585.615 461.912 C 579.886 457.406, 579.500 455.493, 579.500 431.641 L 579.500 409.782 582.962 406.891 L 586.424 404 572.212 404 C 564.396 404, 558 404.225, 558 404.500 M 637.313 406.805 L 640 409.609 640 433.758 C 640 458.973, 639.612 461.688, 635.500 465.217 C 633.596 466.851, 634.238 466.935, 648.962 466.967 L 664.424 467 660.975 464.121 L 657.526 461.241 657.513 448.371 L 657.500 435.500 660.532 435.203 C 667.130 434.556, 670.846 439, 679.195 457.522 C 680.677 460.810, 682.927 464.147, 684.195 464.937 C 686.762 466.538, 704.004 467.788, 703.994 466.372 C 703.990 465.893, 702.720 464.779, 701.171 463.898 C 699.481 462.937, 697.385 460.177, 695.928 456.992 C 688.762 441.333, 687.606 439.585, 682.636 436.891 L 677.824 434.282 682.162 433.164 C 692.011 430.627, 696.618 425.172, 695.710 417.119 C 695.098 411.689, 690.461 406.777, 684.344 405.079 C 682.137 404.466, 670.735 404.009, 657.563 404.006 L 634.626 404 637.313 406.805 M 333.500 434.635 C 333.500 456.981, 333.726 461.609, 334.705 459.319 C 336.395 455.364, 336.404 412.353, 334.715 409.316 C 333.738 407.560, 333.500 412.528, 333.500 434.635 M 348.485 408.179 C 348.179 408.976, 348.057 414.550, 348.214 420.564 L 348.500 431.500 354.010 431.400 C 360.627 431.279, 365.426 429.012, 367.483 425.033 C 370.444 419.308, 368.454 412.320, 363.069 409.536 C 358.643 407.247, 349.180 406.367, 348.485 408.179 M 413.043 409.613 C 414.312 412.951, 414.229 451.293, 412.941 456.882 C 411.769 461.964, 412.270 463.173, 414.164 459.836 C 415.109 458.170, 415.589 451.649, 415.836 437.100 C 416.210 415.042, 415.689 408.478, 413.495 407.636 C 412.369 407.204, 412.278 407.602, 413.043 409.613 M 428 418.826 C 428 425.457, 428.407 431.133, 428.903 431.440 C 429.400 431.747, 432.631 431.612, 436.083 431.140 C 444.286 430.018, 448 426.365, 448 419.418 C 448 411.360, 445.041 408.882, 433.750 407.482 L 428 406.770 428 418.826 M 564.747 428.881 C 565.030 453.531, 565.280 455.815, 568.099 459.399 C 570.998 463.084, 572.537 462.645, 569.780 458.918 C 567.592 455.961, 567.487 454.927, 567.164 433.215 C 566.941 418.137, 566.441 410.038, 565.664 408.928 C 564.766 407.643, 564.557 412.204, 564.747 428.881 M 642.500 434.627 C 642.500 456.728, 642.732 461.575, 643.679 459.253 C 645.545 454.677, 645.752 413.258, 643.925 409.805 C 642.661 407.414, 642.500 410.213, 642.500 434.627 M 657.750 407.567 C 657.337 407.988, 657 413.447, 657 419.698 C 657 432.707, 656.934 432.613, 665.368 431.560 C 672.870 430.623, 677.016 427.033, 677.710 420.878 C 678.310 415.561, 676.393 411.772, 671.938 409.468 C 668.679 407.783, 658.830 406.463, 657.750 407.567 M 763.193 415.263 C 758.679 416.708, 752.681 423.815, 750.119 430.754 C 748.868 434.142, 747.629 440.862, 747.099 447.129 C 746.604 452.975, 745.653 458.825, 744.985 460.129 C 744.317 461.433, 741.460 464.915, 738.635 467.866 L 733.500 473.233 737.263 472.569 C 741.095 471.892, 750.242 468.166, 757.552 464.303 C 773.740 455.748, 783.926 434.664, 778.165 421.639 C 776.601 418.105, 775.208 416.567, 772.573 415.466 C 768.596 413.804, 767.802 413.787, 763.193 415.263 M 279.048 418.170 C 279.022 419.088, 281.531 425.163, 284.623 431.670 C 292.458 448.152, 297 458.874, 297 460.889 C 297 461.830, 296.460 463.140, 295.800 463.800 C 295.018 464.582, 294.976 465, 295.678 465 C 297.721 465, 299.254 462.018, 298.681 459.155 C 297.550 453.498, 279.138 415.061, 279.048 418.170 M 272.611 430.250 C 270.780 434.238, 269.471 437.837, 269.700 438.250 C 270.285 439.299, 282.763 439.193, 283.418 438.133 C 284.087 437.050, 277.921 423, 276.777 423 C 276.316 423, 274.441 426.262, 272.611 430.250 M 427.932 435.750 C 427.813 437.057, 427.786 451.343, 427.895 455.295 C 428.048 460.829, 431.542 464, 437.487 464 C 447.963 464, 453.373 458.597, 452.742 448.764 C 452.288 441.681, 449.748 438.597, 442.627 436.482 C 437.398 434.929, 428.049 434.463, 427.932 435.750 M 724.471 440.672 C 722.443 442.700, 722.986 447.454, 726.034 454.344 C 727.167 456.906, 728.359 461.239, 728.683 463.972 L 729.272 468.943 732.255 466.819 C 733.895 465.650, 736.568 462.626, 738.193 460.097 C 740.708 456.186, 741.082 454.763, 740.703 450.562 C 740.332 446.454, 739.650 445.068, 736.643 442.312 C 732.543 438.554, 727.296 437.847, 724.471 440.672" stroke="none" fill="#fbfbfb" fill-rule="evenodd"/></svg>