<svg xmlns="http://www.w3.org/2000/svg" width="822" height="822" viewBox="0 0 822 822" version="1.1"><path d="M 281 292.502 C 259.237 296.903, 250.016 309.060, 246.968 337.373 C 244.764 357.838, 248.901 379.869, 256.952 390.546 C 263.747 399.558, 277.453 404.956, 293.614 404.985 C 320.525 405.034, 335.924 392.687, 339.959 367.824 C 341.289 359.625, 341.278 337.304, 339.939 329.051 C 338.560 320.556, 333.791 309.285, 329.410 304.166 C 320.448 293.696, 299.755 288.710, 281 292.502 M 88 296.433 C 88 297.887, 89.013 298.352, 94.646 299.482 C 100.065 300.569, 99.267 298.940, 113.021 337 C 120.598 357.968, 128.416 379.506, 132.530 390.750 L 136.281 401 144.552 401 L 152.823 401 155.402 394.250 C 159.025 384.766, 170.613 352.979, 171.479 350.149 C 172.829 345.739, 173.119 346.414, 188.263 389.250 L 192.417 401 201.009 401 L 209.602 401 214.891 386.250 C 222.541 364.917, 228 349.902, 235.527 329.500 C 239.179 319.600, 243.208 308.575, 244.479 305 C 245.750 301.425, 247.110 297.712, 247.502 296.750 C 248.120 295.232, 247.597 295, 243.556 295 C 238.168 295, 238.896 293.829, 231.557 314.302 C 229.152 321.011, 224.482 333.925, 221.179 343 C 217.875 352.075, 213.495 364.113, 211.445 369.750 C 209.395 375.387, 207.368 380, 206.941 380 C 206.515 380, 205.379 377.863, 204.418 375.250 C 200.985 365.922, 189.872 336.343, 186.477 327.500 C 184.577 322.550, 181.102 313.325, 178.756 307 L 174.489 295.500 164.361 295.216 L 154.233 294.933 158.694 307.216 C 161.147 313.972, 164.281 322.751, 165.659 326.724 L 168.164 333.949 162.724 348.724 C 159.733 356.851, 155.990 367.215, 154.408 371.755 C 152.825 376.295, 151.110 379.870, 150.595 379.698 C 150.080 379.527, 148.558 376.487, 147.211 372.943 C 144.683 366.291, 138.653 350.270, 128.226 322.500 C 124.922 313.700, 121.207 303.913, 119.971 300.750 L 117.722 295 102.861 295 C 90.629 295, 88 295.253, 88 296.433 M 357 347.892 L 357 401 367 401 L 377 401 377 351.500 L 377 302 386.250 302.006 C 400.997 302.014, 407.199 304.583, 411.191 312.334 C 414.383 318.532, 414.249 330.006, 410.915 336.052 C 407.761 341.771, 400.111 346.506, 392.484 347.459 C 389.468 347.836, 387 348.323, 387 348.542 C 387 348.762, 390.206 354.017, 394.124 360.221 C 398.042 366.424, 405.354 378.130, 410.374 386.233 L 419.500 400.965 430.760 400.983 L 442.020 401 425.937 376.906 C 417.092 363.655, 410 352.685, 410.177 352.529 C 410.355 352.373, 413.004 351.527, 416.064 350.649 C 423.757 348.441, 429.407 344.068, 432.714 337.759 C 435.095 333.219, 435.472 331.338, 435.474 324 C 435.476 313.936, 433.517 309.311, 426.826 303.583 C 418.967 296.856, 413.216 295.755, 383.250 295.238 L 357 294.785 357 347.892 M 457 348 L 457 401 488 401 L 519 401 519 397.500 L 519 394 499.571 394 C 483.242 394, 479.892 393.749, 478.571 392.429 C 477.187 391.044, 477 385.167, 477 342.929 L 477 295 467 295 L 457 295 457 348 M 532 348 L 532 401 555.250 400.965 C 587.679 400.916, 597.571 398.900, 606.954 390.423 C 616.037 382.216, 620.315 368.667, 620.347 348 C 620.378 327.589, 616.227 314.579, 606.881 305.799 C 597.587 297.067, 587.449 295, 553.928 295 L 532 295 532 348 M 283.962 301.250 C 278.734 303.886, 273.788 310.652, 271.462 318.349 C 267.832 330.357, 267.879 367.066, 271.538 378.145 C 275.882 391.296, 282.674 397, 293.992 397 C 301.629 397, 305.535 395.375, 310.124 390.289 C 316.551 383.167, 318.960 371.636, 318.960 348 C 318.960 324.144, 316.668 313.312, 310.020 305.760 C 303.823 298.720, 292.772 296.807, 283.962 301.250 M 552.483 303.183 C 552.183 303.966, 552.063 323.861, 552.218 347.393 L 552.500 390.178 554.861 392.089 C 556.728 393.601, 558.818 393.998, 564.861 393.988 C 582.993 393.960, 593.144 387.011, 596.614 372.254 C 600.084 357.489, 599.161 327.895, 594.923 318.042 C 592.464 312.326, 586.961 306.725, 581.500 304.380 C 575.984 302.011, 553.292 301.075, 552.483 303.183 M 280.176 419.013 C 257.235 423.830, 246.514 441.918, 246.697 475.500 C 246.816 497.334, 250.685 510.944, 259.301 519.833 C 269.026 529.867, 274.626 531, 314.478 531 C 338.751 531, 346.073 530.718, 345.765 529.795 C 345.544 529.132, 342.919 527.995, 339.932 527.267 C 333.435 525.684, 330.288 524.194, 329.589 522.370 C 329.304 521.629, 330.818 517.754, 332.952 513.761 C 335.087 509.767, 337.592 504.025, 338.519 501 C 340.711 493.848, 341.679 467.317, 340.115 457.273 C 337.170 438.368, 328.750 426.524, 314.282 420.933 C 309.693 419.160, 306.025 418.638, 296.500 418.402 C 289.900 418.239, 282.554 418.514, 280.176 419.013 M 357 463.395 C 357 501.721, 357.146 505.261, 358.965 511.152 C 361.387 518.991, 367.114 525.056, 375.064 528.201 C 379.499 529.955, 383.210 530.430, 395.215 530.784 C 408.161 531.164, 410.774 530.960, 416.962 529.080 C 425.395 526.519, 429.997 522.773, 433.424 515.682 C 437.377 507.501, 437.984 500.062, 437.992 459.750 L 438 422 432.592 422 L 427.185 422 426.740 463.750 C 426.436 492.353, 425.917 506.689, 425.093 509.277 C 424.432 511.355, 422.457 514.688, 420.704 516.684 C 415.886 522.171, 411.030 523.952, 400.815 523.978 C 390.797 524.003, 387.764 523.096, 383.223 518.716 C 377.292 512.996, 377 510.416, 377 463.818 L 377 422 367 422 L 357 422 357 463.395 M 445 423.400 C 445 424.252, 446.939 425.266, 449.950 425.988 C 452.673 426.641, 455.371 427.742, 455.945 428.434 C 456.519 429.126, 459.703 437.074, 463.020 446.096 C 470.869 467.447, 476.530 483.033, 491.315 524 L 492.578 527.500 501.084 527.786 L 509.589 528.072 515.213 512.286 C 518.306 503.604, 523.348 489.637, 526.418 481.250 C 538.603 447.959, 543.239 435.211, 545.509 428.750 L 547.881 422 543.138 422 L 538.395 422 536.725 426.750 C 535.807 429.363, 533.193 436.797, 530.916 443.270 L 526.777 455.041 506.695 454.770 L 486.612 454.500 480.556 438.254 L 474.500 422.008 459.750 422.004 C 447.771 422.001, 445 422.263, 445 423.400 M 559 475 L 559 528 564 528 L 569 528 569 483.300 C 569 456.153, 569.360 438.973, 569.918 439.550 C 570.719 440.380, 608.247 504.744, 617.845 521.750 L 621.372 528 630.686 528 L 640 528 640 475 L 640 422 635 422 L 630 422 630 464.559 C 630 490.173, 629.634 506.892, 629.081 506.550 C 628.576 506.238, 626.481 502.949, 624.425 499.241 C 622.370 495.533, 618.447 488.675, 615.708 484 C 612.968 479.325, 609.046 472.575, 606.992 469 C 602.075 460.441, 593.739 446.058, 585.982 432.750 L 579.717 422 569.358 422 L 559 422 559 475 M 649 425.500 L 649 429 665 429 L 681 429 681 478.500 L 681 528 691 528 L 701 528 701 478.500 L 701 429 717.500 429 L 734 429 734 425.500 L 734 422 691.500 422 L 649 422 649 425.500 M 283.842 428.021 C 271.870 434.346, 267.311 452.402, 269.077 486.500 C 269.798 500.409, 271.680 507.799, 276.241 514.624 C 283.977 526.198, 300.976 527.515, 310.020 517.240 C 316.684 509.669, 318.948 498.921, 318.980 474.692 C 319.018 446.480, 314.860 433.015, 304.573 428.035 C 298.976 425.326, 288.956 425.319, 283.842 428.021 M 490.659 462.750 C 490.406 463.163, 492.202 468.900, 494.651 475.500 C 497.099 482.100, 500.718 491.887, 502.692 497.250 C 504.666 502.613, 506.637 507, 507.073 507 C 507.509 507, 508.178 505.988, 508.560 504.750 C 508.942 503.512, 512.146 494.671, 515.682 485.103 C 519.217 475.534, 522.366 466.422, 522.679 464.853 L 523.250 462 507.184 462 C 498.348 462, 490.911 462.337, 490.659 462.750 M 718.747 511.984 C 715.590 514.467, 714.594 518.241, 715.985 522.453 C 717.884 528.209, 726.131 529.960, 730.545 525.545 C 732.352 523.739, 733 522.010, 733 519 C 733 511.211, 724.838 507.193, 718.747 511.984 M 719.566 513.343 C 716.013 516.896, 716.044 522.103, 719.635 524.927 C 723.130 527.677, 726.546 527.545, 729.545 524.545 C 734.176 519.915, 731.840 512.651, 725.316 511.391 C 722.748 510.895, 721.636 511.273, 719.566 513.343 M 721.136 519.250 C 721.211 522.138, 721.467 523.487, 721.706 522.250 C 722.243 519.462, 725.001 519.290, 725.710 522 C 726.621 525.481, 727.493 524.173, 727.711 519 L 727.922 514 724.461 514 L 721 514 721.136 519.250 M 722.667 515.667 C 721.399 516.934, 722.008 518, 724 518 C 725.111 518, 726 517.333, 726 516.500 C 726 514.978, 723.885 514.449, 722.667 515.667" stroke="none" fill="#221f20" fill-rule="evenodd"/><path d="M 88.667 88.667 C 88.300 89.033, 88 135.372, 88 191.641 L 88 293.948 103.141 294.224 L 118.281 294.500 126.215 315.500 C 130.579 327.050, 135.205 339.425, 136.495 343 C 143.454 362.283, 149.613 377.673, 150.461 377.898 C 150.990 378.039, 153.830 371.481, 156.773 363.327 C 159.716 355.172, 163.401 345.147, 164.961 341.050 C 167.226 335.103, 167.595 333.085, 166.791 331.050 C 162.135 319.263, 154.137 295.588, 154.573 294.882 C 155.456 293.454, 173.745 293.788, 174.691 295.250 C 175.136 295.938, 177.677 302.350, 180.337 309.500 C 198.979 359.598, 206.432 379, 207.037 379 C 207.359 379, 209.934 372.588, 212.758 364.750 C 215.582 356.913, 220.437 343.525, 223.546 335 C 226.655 326.475, 231.093 314.209, 233.407 307.742 C 235.722 301.276, 238.091 295.509, 238.672 294.928 C 239.983 293.617, 248.571 294.127, 248.309 295.500 C 248.127 296.459, 243.181 310.183, 231.373 342.500 C 224.535 361.213, 218.258 378.448, 213.434 391.750 L 209.717 402 201.031 402 L 192.345 402 189.213 393.250 C 182.185 373.615, 175.160 354.322, 174.011 351.500 L 172.791 348.500 170.923 353.500 C 169.896 356.250, 165.882 367.275, 162.002 378 C 158.122 388.725, 154.519 398.512, 153.995 399.750 C 153.115 401.829, 152.404 402, 144.660 402 L 136.278 402 132.191 391.250 C 128.895 382.583, 107.438 323.393, 101.913 307.728 C 100.119 302.643, 97.313 300.234, 92.239 299.422 L 88 298.744 88 516.222 L 88 733.700 409.956 734.436 C 587.031 734.841, 732.381 734.882, 732.956 734.527 C 733.671 734.085, 734 700.806, 734 628.971 L 734 524.060 730.250 526.614 C 727.353 528.587, 725.704 529.043, 723 528.618 C 712.706 527, 712.234 511.360, 722.422 509.449 C 725.862 508.803, 732 511.096, 732 513.026 C 732 513.562, 732.450 514, 733 514 C 733.651 514, 734 499.167, 734 471.500 L 734 429 718 429 L 702 429 702 478.500 L 702 528 691 528 L 680 528 680 478.500 L 680 429 664 429 L 648 429 648 425 L 648 421 691 421 L 734 421 734 254.500 L 734 88 411.667 88 C 234.383 88, 89.033 88.300, 88.667 88.667 M 277.024 292.603 C 255.916 298.275, 246 316.142, 246 348.500 C 246 380.901, 255.684 398.030, 277.185 403.662 C 285.812 405.922, 303.504 405.873, 311.500 403.568 C 326.589 399.217, 336.004 388.563, 339.725 371.626 C 341.881 361.817, 341.864 335.110, 339.696 325.235 C 335.886 307.877, 325.693 296.499, 310.380 292.511 C 302.920 290.568, 284.408 290.619, 277.024 292.603 M 356.508 295.120 C 356.218 295.879, 356.097 320.125, 356.240 349 L 356.500 401.500 366.741 401.785 L 376.981 402.070 377.241 352.285 L 377.500 302.500 387.112 302.561 C 398.299 302.633, 404.621 304.573, 408.433 309.103 C 415.288 317.249, 414.229 334.080, 406.430 340.927 C 402.777 344.135, 394.704 347, 389.318 347 C 387.493 347, 386 347.280, 386 347.622 C 386 348.220, 403.614 376.577, 414.652 393.750 L 419.955 402 430.978 402 C 437.872 402, 442 401.614, 442 400.970 C 442 400.404, 435.242 389.845, 426.983 377.507 C 418.723 365.169, 411.717 354.427, 411.414 353.636 C 411.013 352.591, 411.949 352.015, 414.849 351.525 C 421.197 350.453, 429.012 345.176, 432.410 339.666 C 434.987 335.488, 435.449 333.636, 435.813 326.034 C 436.323 315.354, 435.104 311.153, 429.835 305.437 C 425.902 301.170, 419.803 298.099, 411 295.954 C 408.525 295.350, 395.371 294.606, 381.768 294.299 C 361.287 293.837, 356.946 293.978, 356.508 295.120 M 456.473 295.214 C 456.202 295.921, 456.097 320.125, 456.240 349 L 456.500 401.500 488 401.500 L 519.500 401.500 519.810 397.750 L 520.121 394 500.751 394 C 485.607 394, 480.959 393.691, 479.441 392.581 C 477.578 391.220, 477.480 389.212, 477 342.831 L 476.500 294.500 466.733 294.214 C 459.480 294.001, 456.838 294.258, 456.473 295.214 M 532 347.871 L 532 402 553.750 401.980 C 583.466 401.952, 594.013 400.182, 603.924 393.558 C 610.099 389.431, 616.232 380.066, 618.437 371.397 C 621.058 361.093, 621.588 342.541, 619.588 331.091 C 616.158 311.450, 607.664 301.493, 590.414 296.891 C 583.699 295.099, 578.673 294.701, 557.250 294.261 L 532 293.743 532 347.871 M 286.625 300.469 C 273.755 305.057, 268.308 321.579, 269.306 353 C 270.028 375.725, 272.730 384.909, 280.850 392.245 C 285.307 396.272, 291.108 397.712, 298.296 396.577 C 307.208 395.169, 313.090 388.237, 316.695 374.895 C 318.066 369.822, 318.419 364.366, 318.402 348.500 C 318.380 327.408, 317.217 319.230, 313.101 311.229 C 307.866 301.052, 297.177 296.708, 286.625 300.469 M 553 345.239 C 553 397.343, 552.045 393.566, 565.168 393.385 C 580.054 393.179, 587.923 389.391, 592.881 380.047 C 597.350 371.623, 598.284 364.720, 597.781 343.844 C 597.395 327.816, 597.053 324.766, 595.075 319.688 C 590.496 307.937, 582.043 303.237, 563.750 302.269 L 553 301.700 553 345.239 M 284.772 418.029 C 276.122 419.059, 271.626 420.520, 265.778 424.201 C 252.121 432.796, 246.070 448.393, 246.070 475 C 246.070 508.057, 255.531 524.736, 277.535 530.467 C 282.214 531.686, 289.818 532, 314.651 532 C 345.259 532, 349.026 531.626, 346.258 528.858 C 345.726 528.326, 342.441 527.226, 338.959 526.413 C 328.693 524.018, 328.150 522.804, 333.482 514.151 C 340.158 503.315, 343.136 483.062, 341.040 462.743 C 339.029 443.245, 333.732 432.115, 322.967 424.769 C 314.414 418.933, 299.414 416.286, 284.772 418.029 M 356.201 464.750 L 356.500 508.500 359.311 514.224 C 362.677 521.080, 368.344 526.190, 375.921 529.202 C 380.872 531.171, 383.358 531.425, 398 531.460 C 413.696 531.498, 414.768 531.374, 420.006 528.917 C 429.712 524.364, 434.877 517.524, 436.909 506.535 C 437.580 502.904, 438 485.288, 438 460.766 L 438 420.900 432.250 421.200 L 426.500 421.500 426 464.500 C 425.454 511.469, 425.470 511.339, 419.411 517.343 C 414.100 522.605, 411.351 523.500, 400.500 523.500 C 388.854 523.500, 384.952 521.818, 381.228 515.192 C 377.722 508.954, 377.041 499.898, 377.020 459.250 L 377 421 366.451 421 L 355.902 421 356.201 464.750 M 444.180 423.222 C 444.433 424.982, 445.437 425.623, 449 426.303 C 451.475 426.775, 454.261 427.913, 455.190 428.831 C 456.120 429.749, 460.545 440.625, 465.024 453 C 469.503 465.375, 476.546 484.725, 480.675 496 C 484.804 507.275, 489.088 519.104, 490.195 522.286 L 492.208 528.072 501.181 527.786 L 510.153 527.500 515.113 514 C 517.841 506.575, 521.602 496.225, 523.472 491 C 525.341 485.775, 529.853 473.400, 533.499 463.500 C 544.719 433.031, 548 423.717, 548 422.332 C 548 421.403, 546.511 421, 543.082 421 L 538.163 421 535.933 427.750 C 534.707 431.462, 531.923 439.113, 529.748 444.750 L 525.792 455 506.922 455 L 488.051 455 486.650 452.250 C 485.879 450.738, 482.888 443.087, 480.003 435.250 L 474.758 421 459.309 421 C 443.917 421, 443.862 421.008, 444.180 423.222 M 558.698 421.635 C 558.314 422.019, 558 446.108, 558 475.167 L 558 528 563.500 528 L 569 528 569 483.800 C 569 457.961, 569.369 439.995, 569.889 440.550 C 570.378 441.072, 577.405 452.975, 585.504 467 C 601.823 495.259, 608.923 507.448, 616.233 519.750 L 621.134 528 630.567 528 L 640 528 640 474.500 L 640 421 635.011 421 L 630.021 421 629.761 463.725 L 629.500 506.449 625.374 499.475 C 623.105 495.639, 617.983 486.875, 613.993 480 C 610.002 473.125, 604.373 463.450, 601.485 458.500 C 598.596 453.550, 592.609 443.200, 588.179 435.500 L 580.126 421.500 569.762 421.218 C 564.061 421.063, 559.083 421.251, 558.698 421.635 M 286.500 427.326 C 281.247 429.382, 278.369 431.906, 275.736 436.767 C 271.327 444.907, 269.911 452.244, 269.320 470 C 268.467 495.664, 271.874 511.039, 280.049 518.425 C 288.829 526.357, 301.863 525.615, 309.656 516.739 C 315.777 509.767, 319.001 495.352, 318.989 475 C 318.974 448.696, 313.704 432.493, 303.684 427.943 C 298.981 425.808, 291.102 425.525, 286.500 427.326 M 490.993 463.750 C 490.980 465.160, 506.499 505.986, 507.050 505.993 C 507.353 505.997, 509.785 499.813, 512.454 492.250 C 515.124 484.688, 518.589 475.226, 520.154 471.224 C 521.719 467.222, 523 463.735, 523 463.474 C 523 463.213, 515.800 463, 507 463 C 498.200 463, 490.997 463.337, 490.993 463.750 M 720.400 512.765 C 718.237 514.209, 716.872 518.139, 717.515 521.067 C 718.263 524.475, 720.572 526, 724.981 526 L 728.093 526 726.297 523.531 C 724.106 520.522, 723 520.343, 723 523 C 723 524.100, 722.550 525, 722 525 C 721.444 525, 721 522.333, 721 519 C 721 513.399, 721.154 513, 723.309 513 C 724.579 513, 726.473 513.626, 727.519 514.390 C 729.127 515.566, 729.244 516.169, 728.277 518.291 C 727.395 520.227, 727.427 521.201, 728.414 522.552 C 729.414 523.919, 729.870 524.019, 730.495 523.007 C 731.826 520.855, 731.237 515.919, 729.409 513.899 C 727.685 511.994, 722.527 511.345, 720.400 512.765" stroke="none" fill="#fbfafa" fill-rule="evenodd"/><path d="M 0 411.001 L 0 822.002 411.250 821.751 L 822.500 821.500 822.751 410.750 L 823.002 -0 411.501 -0 L 0 0 0 411.001 M 0.495 411.500 C 0.495 637.550, 0.610 729.876, 0.750 616.668 C 0.890 503.461, 0.890 318.511, 0.750 205.668 C 0.610 92.826, 0.495 185.450, 0.495 411.500 M 88.667 88.667 C 88.300 89.033, 88 135.372, 88 191.641 L 88 293.948 103.168 294.224 C 114.483 294.430, 118.401 294.824, 118.593 295.775 C 118.734 296.476, 118.621 296.589, 118.342 296.025 C 118.028 295.394, 112.106 295, 102.917 295 C 90.714 295, 88 295.258, 88 296.417 C 88 297.196, 88.563 298.060, 89.250 298.338 C 90.250 298.741, 90.250 298.858, 89.250 298.921 C 88.254 298.984, 88 343.179, 88 516.350 L 88 733.700 409.956 734.436 C 587.031 734.841, 732.381 734.882, 732.956 734.527 C 733.671 734.085, 734 700.749, 734 628.786 L 734 523.690 731.845 525.595 L 729.690 527.500 731.452 524.763 C 732.624 522.942, 733.085 520.684, 732.830 518.013 C 732.619 515.806, 732.797 514, 733.224 514 C 733.651 514, 734 493.300, 734 468 L 734 422 691.560 422 L 649.121 422 648.728 425.750 L 648.336 429.500 648.168 425.250 L 648 421 691 421 L 734 421 734 254.500 L 734 88 411.667 88 C 234.383 88, 89.033 88.300, 88.667 88.667 M 164 294.733 C 171.439 294.982, 173.771 295.412, 174.750 296.717 C 175.438 297.633, 176 297.936, 176 297.391 C 176 294.725, 173.302 294.006, 164.050 294.208 L 154.500 294.415 164 294.733 M 238.200 295.200 C 237.540 295.860, 237 296.846, 237 297.391 C 237 297.936, 237.594 297.570, 238.321 296.576 C 239.343 295.178, 240.676 294.852, 244.225 295.135 C 246.746 295.336, 248.600 295.163, 248.346 294.750 C 247.594 293.534, 239.507 293.893, 238.200 295.200 M 356.459 295.250 C 356.195 295.938, 356.097 320.125, 356.240 349 L 356.500 401.500 366.500 401.552 L 376.500 401.605 366.750 401.267 L 357 400.930 357 347.985 L 357 295.041 377.750 294.749 L 398.500 294.457 377.719 294.229 C 361.844 294.054, 356.824 294.295, 356.459 295.250 M 456.459 295.250 C 456.195 295.938, 456.097 320.125, 456.240 349 L 456.500 401.500 488 401.500 L 519.500 401.500 519.605 397.741 L 519.710 393.983 519.294 397.491 L 518.879 401 487.940 401 L 457 401 457 348.036 L 457 295.072 466.750 294.746 L 476.500 294.419 466.719 294.209 C 459.655 294.058, 456.804 294.347, 456.459 295.250 M 542.250 294.746 C 548.163 294.923, 557.837 294.923, 563.750 294.746 C 569.663 294.569, 564.825 294.425, 553 294.425 C 541.175 294.425, 536.337 294.569, 542.250 294.746 M 427.224 303.966 C 429.702 306.147, 432.300 309.311, 432.999 310.998 C 433.698 312.684, 434.467 313.867, 434.708 313.625 C 436.081 312.252, 425.873 300, 423.356 300 C 423.005 300, 424.746 301.785, 427.224 303.966 M 552.458 345.500 C 552.459 369.150, 552.590 378.682, 552.749 366.682 C 552.909 354.683, 552.909 335.333, 552.749 323.682 C 552.589 312.032, 552.458 321.850, 552.458 345.500 M 580.307 304.972 C 582.951 306.005, 585.850 307.446, 586.749 308.175 C 588.113 309.280, 588.249 309.275, 587.569 308.146 C 586.630 306.588, 579.229 303.032, 577 303.069 C 576.175 303.082, 577.663 303.939, 580.307 304.972 M 598.374 347.500 C 598.376 353.550, 598.541 355.896, 598.740 352.713 C 598.939 349.531, 598.937 344.581, 598.736 341.713 C 598.535 338.846, 598.372 341.450, 598.374 347.500 M 341.343 348.500 C 341.346 352.900, 341.522 354.576, 341.733 352.224 C 341.945 349.872, 341.942 346.272, 341.727 344.224 C 341.512 342.176, 341.339 344.100, 341.343 348.500 M 153.536 398.887 C 152.962 400.694, 151.908 400.961, 144.195 401.256 L 135.500 401.589 144.215 401.794 C 152.138 401.981, 153.031 401.811, 154.046 399.914 C 154.660 398.767, 154.942 397.608, 154.672 397.339 C 154.403 397.070, 153.892 397.766, 153.536 398.887 M 196.250 401.735 C 198.863 401.941, 203.137 401.941, 205.750 401.735 C 208.363 401.529, 206.225 401.360, 201 401.360 C 195.775 401.360, 193.637 401.529, 196.250 401.735 M 425.250 401.739 C 428.413 401.937, 433.587 401.937, 436.750 401.739 C 439.913 401.541, 437.325 401.378, 431 401.378 C 424.675 401.378, 422.087 401.541, 425.250 401.739 M 543.250 401.747 C 549.712 401.921, 560.288 401.921, 566.750 401.747 C 573.212 401.573, 567.925 401.430, 555 401.430 C 542.075 401.430, 536.788 401.573, 543.250 401.747 M 356.239 463.250 L 356.477 505.500 356.750 463.785 L 357.022 422.070 367.261 421.746 L 377.500 421.422 366.750 421.211 L 356 421 356.239 463.250 M 426.456 422.254 C 426.191 422.944, 426.099 440.156, 426.250 460.504 L 426.525 497.500 426.763 459.800 L 427 422.100 432.750 421.739 L 438.500 421.378 432.719 421.189 C 428.857 421.063, 426.777 421.416, 426.456 422.254 M 444.180 423.240 C 444.377 424.615, 445.272 425.558, 446.500 425.682 C 448.058 425.840, 448.113 425.771, 446.750 425.369 C 445.788 425.086, 445 424.223, 445 423.453 C 445 422.326, 447.987 421.993, 460.250 421.748 L 475.500 421.444 459.680 421.222 L 443.861 421 444.180 423.240 M 540.250 421.716 C 541.763 421.945, 544.237 421.945, 545.750 421.716 C 547.263 421.487, 546.025 421.300, 543 421.300 C 539.975 421.300, 538.737 421.487, 540.250 421.716 M 558.459 422.250 C 558.195 422.938, 558.101 447.125, 558.249 476 L 558.518 528.500 558.759 475.188 L 559 421.875 569.907 422.188 C 575.906 422.359, 580.605 422.163, 580.348 421.750 C 579.505 420.394, 558.990 420.863, 558.459 422.250 M 632.250 421.716 C 633.763 421.945, 636.237 421.945, 637.750 421.716 C 639.263 421.487, 638.025 421.300, 635 421.300 C 631.975 421.300, 630.737 421.487, 632.250 421.716 M 680.464 478.500 C 680.464 506, 680.592 517.106, 680.749 503.180 C 680.906 489.255, 680.906 466.755, 680.749 453.180 C 680.592 439.606, 680.464 451, 680.464 478.500 M 701.464 478.500 C 701.464 506, 701.592 517.106, 701.749 503.180 C 701.906 489.255, 701.906 466.755, 701.749 453.180 C 701.592 439.606, 701.464 451, 701.464 478.500 M 490.652 462.750 C 490.395 463.163, 495.206 463.382, 501.343 463.238 C 521.570 462.762, 523.739 462.381, 507.309 462.189 C 498.404 462.085, 490.908 462.337, 490.652 462.750 M 341.343 475.500 C 341.346 479.900, 341.522 481.576, 341.733 479.224 C 341.945 476.872, 341.942 473.272, 341.727 471.224 C 341.512 469.176, 341.339 471.100, 341.343 475.500 M 357.067 507.101 C 356.990 508.942, 359.061 515.273, 359.572 514.761 C 359.760 514.574, 359.288 512.413, 358.523 509.960 C 357.759 507.507, 357.104 506.220, 357.067 507.101 M 722 521.727 C 722 522.757, 721.438 524.167, 720.750 524.859 C 719.748 525.869, 719.847 525.986, 721.250 525.452 C 722.212 525.086, 723 523.934, 723 522.893 C 723 520.875, 724.496 520.320, 725.342 522.025 C 725.621 522.589, 725.734 522.476, 725.592 521.775 C 725.163 519.655, 722 519.612, 722 521.727 M 345.548 529.250 C 346.173 530.891, 344.206 531.015, 313.857 531.235 L 281.500 531.471 313.436 531.750 C 345.249 532.028, 349.088 531.675, 346.141 528.750 C 345.131 527.748, 345.014 527.847, 345.548 529.250 M 415.500 529.528 C 413.300 530.253, 412.400 530.861, 413.500 530.878 C 414.600 530.896, 416.850 530.292, 418.500 529.536 C 422.279 527.806, 420.739 527.801, 415.500 529.528 M 392.292 531.742 C 396.027 531.935, 401.877 531.934, 405.292 531.739 C 408.706 531.545, 405.650 531.387, 398.500 531.389 C 391.350 531.390, 388.556 531.550, 392.292 531.742" stroke="none" fill="#cb5a30" fill-rule="evenodd"/></svg>